<svg width="32" height="32" viewBox="0 0 32 32" fill="none" xmlns="http://www.w3.org/2000/svg">
    <path d="M28.9032 23.4194L27.0968 22.3871C26.8387 22.2581 26.5806 21.871 26.5806 21.5484C26.5806 21.4194 26.6452 21.2903 26.6452 21.1613C24.7742 25.1613 20.7097 27.9355 15.9355 27.9355C9.41935 27.9355 4.06452 22.5806 4.06452 16.0645C4.06452 9.48387 9.41935 4.19355 16 4.12903C16.3226 4.12903 16.7097 4.19355 17.0968 4.19355C17.0323 4.19355 16.9677 4.19355 16.9677 4.19355C16.3871 4.12903 16 3.74194 16 3.16129V1.09677C16 0.580645 16.3871 0.129032 16.9677 0.0645161C16.6452 0.0645161 16.3226 0 16 0C7.16129 0 0 7.16129 0 16C0 24.8387 7.16129 32 16 32C22.3226 32 27.7419 28.3871 30.3226 23.0323C30.0645 23.5484 29.4194 23.7419 28.9032 23.4194Z" fill="#B3B3B3"/>
    <path d="M16.9677 4.19358C23.0323 4.70971 27.871 9.80649 27.871 16C27.871 16.0646 27.8065 16.0646 27.8065 16.0646C27.8065 17.8065 27.4194 19.5484 26.7097 21.0323C26.5161 21.5484 26.6452 22.1291 27.0968 22.3871L28.9032 23.4194C29.4194 23.742 30.129 23.5484 30.3871 23.0323C31.3548 20.9033 32 18.5162 32 16.0646V16C32 7.54842 25.3548 0.645195 17.0323 0.0645503C16.4516 3.41944e-05 16 0.516163 16 1.09681V3.16132C16 3.74197 16.3871 4.12907 16.9677 4.19358Z" fill="black"/>
</svg>
