<svg width="19" height="24" viewBox="0 0 19 24" fill="none" xmlns="http://www.w3.org/2000/svg">
    <path d="M16 7.99996H14.8571V5.71425C14.8571 2.55996 12.2971 -4.00543e-05 9.14285 -4.00543e-05C5.98857 -4.00543e-05 3.42857 2.55996 3.42857 5.71425V7.99996H2.28571C1.02857 7.99996 -1.90735e-06 9.02853 -1.90735e-06 10.2857V21.7142C-1.90735e-06 22.9714 1.02857 24 2.28571 24H16C17.2571 24 18.2857 22.9714 18.2857 21.7142V10.2857C18.2857 9.02853 17.2571 7.99996 16 7.99996ZM9.14285 18.2857C7.88571 18.2857 6.85714 17.2571 6.85714 16C6.85714 14.7428 7.88571 13.7142 9.14285 13.7142C10.4 13.7142 11.4286 14.7428 11.4286 16C11.4286 17.2571 10.4 18.2857 9.14285 18.2857ZM12.6857 7.99996H5.6V5.71425C5.6 3.75996 7.18857 2.17139 9.14285 2.17139C11.0971 2.17139 12.6857 3.75996 12.6857 5.71425V7.99996Z" fill="#191C39"/>
</svg>
