<svg width="24" height="24" viewBox="0 0 24 24" fill="none" xmlns="http://www.w3.org/2000/svg">
    <path d="M12 4.00543e-05C5.376 4.00543e-05 -1.90735e-06 5.37604 -1.90735e-06 12C-1.90735e-06 18.624 5.376 24 12 24C18.624 24 24 18.624 24 12C24 5.37604 18.624 4.00543e-05 12 4.00543e-05ZM12 3.60004C13.992 3.60004 15.6 5.20804 15.6 7.20004C15.6 9.19204 13.992 10.8 12 10.8C10.008 10.8 8.4 9.19204 8.4 7.20004C8.4 5.20804 10.008 3.60004 12 3.60004ZM12 20.64C9 20.64 6.348 19.104 4.8 16.776C4.836 14.388 9.6 13.08 12 13.08C14.388 13.08 19.164 14.388 19.2 16.776C17.652 19.104 15 20.64 12 20.64Z" fill="#191C39"/>
</svg>
