<svg width="24" height="24" viewBox="0 0 24 24" fill="none" xmlns="http://www.w3.org/2000/svg">
    <path fill-rule="evenodd" clip-rule="evenodd" d="M17.1155 6.63245C16.1843 9.23547 14.8403 11.0062 13.751 12.4413C13.6829 12.531 13.6158 12.6194 13.5499 12.7066C12.3499 14.2938 11.6571 15.3479 11.6571 16.837C11.6571 19.5596 14.0315 21.8197 17.1429 21.8197C20.2078 21.8197 22.6286 19.553 22.6286 16.837C22.6286 15.3286 21.9292 14.2895 20.7166 12.7165C20.6546 12.6362 20.5917 12.5548 20.5279 12.4724C19.4217 11.0423 18.0538 9.274 17.1155 6.63245ZM18.2679 5.77602C17.9464 4.74228 16.3393 4.6906 15.9643 5.77602C15.1016 8.41998 13.7822 10.1595 12.6323 11.6756C11.3543 13.3605 10.2857 14.7694 10.2857 16.837C10.2857 20.3518 13.3393 23.1429 17.1429 23.1429C20.8929 23.1429 24 20.3518 24 16.837C24 14.7506 22.9252 13.3602 21.6401 11.6978C20.4738 10.1891 19.1344 8.45636 18.2679 5.77602ZM8.03571 0.348887C8.19643 -0.116296 8.89286 -0.116296 9.05357 0.348887C9.0885 0.461207 9.12514 0.569915 9.16329 0.675261C9.16827 0.689016 9.17328 0.702714 9.17831 0.716355C9.20518 0.789194 9.23277 0.860414 9.261 0.9301C9.26521 0.9405 9.26944 0.950866 9.27368 0.961197C9.6418 1.85785 10.1162 2.49938 10.5383 3.07012C11.1015 3.83157 11.5714 4.46703 11.5714 5.41421C11.5714 7.01651 10.2321 8.257 8.57143 8.257C6.91071 8.257 5.57143 7.01651 5.57143 5.41421C5.57143 4.46282 6.03075 3.82593 6.58315 3.05997C6.99274 2.49204 7.4535 1.85315 7.81615 0.962477C7.8204 0.952037 7.82464 0.941565 7.82886 0.931056C7.85701 0.861021 7.88455 0.789438 7.9114 0.716219C7.9164 0.702591 7.92137 0.688907 7.92632 0.675166C7.96427 0.56985 8.0008 0.461174 8.03571 0.348887ZM8.54845 2.55383C8.26144 3.05069 7.96771 3.45741 7.71815 3.80296C7.68778 3.84502 7.65805 3.88618 7.62908 3.92648C7.11279 4.64456 6.94286 4.9611 6.94286 5.41421C6.94286 6.25474 7.63561 6.93381 8.57143 6.93381C9.50725 6.93381 10.2 6.25474 10.2 5.41421C10.2 4.97354 10.0306 4.66358 9.4965 3.93954C9.46875 3.90192 9.44034 3.86354 9.41133 3.82438C9.15208 3.47431 8.84594 3.06092 8.54845 2.55383ZM2.05765 13.8504C1.54136 14.5685 1.37143 14.885 1.37143 15.3381C1.37143 16.1786 2.06418 16.8577 3 16.8577C3.93582 16.8577 4.62857 16.1786 4.62857 15.3381C4.62857 14.8974 4.45917 14.5875 3.92507 13.8634C3.89732 13.8258 3.8689 13.7874 3.8399 13.7483C3.58065 13.3982 3.27451 12.9848 2.97702 12.4777C2.69001 12.9746 2.39628 13.3813 2.14672 13.7269C2.11635 13.7689 2.08663 13.8101 2.05765 13.8504ZM2.24472 10.8864C1.88207 11.7771 1.42131 12.4159 1.01172 12.9839C0.45932 13.7498 0 14.3867 0 15.3381C0 16.9404 1.33929 18.1809 3 18.1809C4.66071 18.1809 6 16.9404 6 15.3381C6 14.3909 5.53005 13.7555 4.96692 12.994C4.54482 12.4233 4.07038 11.7818 3.70226 10.8851C3.69801 10.8748 3.69378 10.8644 3.68957 10.854C3.66134 10.7843 3.63375 10.7131 3.60688 10.6403C3.60185 10.6266 3.59684 10.6129 3.59186 10.5992C3.55371 10.4938 3.51707 10.3851 3.48214 10.2728C3.32143 9.80761 2.625 9.80761 2.46429 10.2728C2.42937 10.3851 2.39284 10.4938 2.3549 10.5991C2.34995 10.6128 2.34497 10.6265 2.33997 10.6401C2.31312 10.7133 2.28558 10.7849 2.25743 10.855C2.25321 10.8655 2.24897 10.8759 2.24472 10.8864Z"/>
</svg>
