<svg width="32" height="33" viewBox="0 0 32 33" fill="none" xmlns="http://www.w3.org/2000/svg">
    <path d="M24.3352 19.9369C23.9412 19.9369 23.6222 19.6179 23.6222 19.2239C23.6222 18.83 23.9412 18.511 24.3352 18.511H27.287C27.681 18.511 28 18.83 28 19.2239C28 19.6179 27.681 19.9369 27.287 19.9369H24.3352ZM4.71298 19.9369C4.31899 19.9369 4.00001 19.6179 4.00001 19.2239C4.00001 18.83 4.31899 18.511 4.71298 18.511H7.66585C8.05984 18.511 8.37882 18.83 8.37882 19.2239C8.37882 19.6179 8.05984 19.9369 7.66585 19.9369H4.71298ZM21.3893 13.8342C21.2603 13.7052 21.1803 13.5272 21.1803 13.3302C21.1803 13.1332 21.2603 12.9552 21.3893 12.8262L23.4762 10.7393C23.6052 10.6103 23.7832 10.5303 23.9802 10.5303C24.3742 10.5303 24.6931 10.8493 24.6931 11.2433C24.6931 11.4403 24.6131 11.6183 24.4842 11.7473L22.3972 13.8342C22.2682 13.9632 22.0903 14.0432 21.8933 14.0432C21.6963 14.0432 21.5183 13.9632 21.3893 13.8342ZM7.51686 11.7493C7.38786 11.6203 7.30787 11.4423 7.30787 11.2453C7.30787 10.8513 7.62685 10.5323 8.02084 10.5323C8.21783 10.5323 8.39582 10.6123 8.52482 10.7413L10.6117 12.8282C10.7407 12.9572 10.8207 13.1352 10.8207 13.3322C10.8207 13.7262 10.5017 14.0452 10.1078 14.0452C9.91076 14.0452 9.73277 13.9652 9.60377 13.8362L7.51686 11.7493ZM15.2865 10.8903V7.93941C15.2865 7.54543 15.6055 7.22644 15.9995 7.22644C16.3935 7.22644 16.7125 7.54543 16.7125 7.93941V10.8913C16.7125 11.2853 16.3935 11.6043 15.9995 11.6043C15.6055 11.6043 15.2865 11.2843 15.2865 10.8903Z"/>
    <path fill-rule="evenodd" clip-rule="evenodd" d="M16.1711 20.7507C16.3136 20.7507 16.4503 20.8073 16.551 20.9081L20.8419 25.1989H27.4627C27.7594 25.1989 28 25.4395 28 25.7362C28 26.033 27.7594 26.2735 27.4627 26.2735H20.6193C20.4768 26.2735 20.3401 26.2169 20.2394 26.1162L16.1711 22.0479L12.1028 26.1162C12.0021 26.2169 11.8654 26.2735 11.7229 26.2735H4.53731C4.24056 26.2735 4 26.033 4 25.7362C4 25.4395 4.24056 25.1989 4.53731 25.1989H11.5003L15.7911 20.9081C15.8919 20.8073 16.0286 20.7507 16.1711 20.7507Z"/>
    <path fill-rule="evenodd" clip-rule="evenodd" d="M16 16.1514C13.2662 16.1514 11.05 18.3676 11.05 21.1014C11.05 21.4742 10.7478 21.7764 10.375 21.7764C10.0022 21.7764 9.70001 21.4742 9.70001 21.1014C9.70001 17.622 12.5206 14.8014 16 14.8014C19.4794 14.8014 22.3 17.622 22.3 21.1014C22.3 21.4742 21.9978 21.7764 21.625 21.7764C21.2522 21.7764 20.95 21.4742 20.95 21.1014C20.95 18.3676 18.7338 16.1514 16 16.1514Z"/>
</svg>
