<svg width="24" height="22" viewBox="0 0 24 22" fill="none" xmlns="http://www.w3.org/2000/svg">
    <path d="M20.3352 12.8976C19.9412 12.8976 19.6222 12.5786 19.6222 12.1846C19.6222 11.7907 19.9412 11.4717 20.3352 11.4717H23.287C23.681 11.4717 24 11.7907 24 12.1846C24 12.5786 23.681 12.8976 23.287 12.8976H20.3352ZM0.71297 12.8976C0.318987 12.8976 0 12.5786 0 12.1846C0 11.7907 0.318987 11.4717 0.71297 11.4717H3.66585C4.05983 11.4717 4.37882 11.7907 4.37882 12.1846C4.37882 12.5786 4.05983 12.8976 3.66585 12.8976H0.71297ZM17.3893 6.79486C17.2603 6.66586 17.1803 6.48787 17.1803 6.29088C17.1803 6.09389 17.2603 5.91589 17.3893 5.7869L19.4762 3.69999C19.6052 3.57099 19.7832 3.491 19.9802 3.491C20.3742 3.491 20.6931 3.80998 20.6931 4.20397C20.6931 4.40096 20.6131 4.57895 20.4841 4.70795L18.3972 6.79486C18.2682 6.92385 18.0902 7.00385 17.8933 7.00385C17.6963 7.00385 17.5183 6.92385 17.3893 6.79486ZM3.51685 4.70995C3.38786 4.58095 3.30786 4.40296 3.30786 4.20597C3.30786 3.81198 3.62685 3.493 4.02083 3.493C4.21782 3.493 4.39582 3.57299 4.52481 3.70199L6.61172 5.7889C6.74072 5.9179 6.82072 6.09589 6.82072 6.29288C6.82072 6.68686 6.50173 7.00585 6.10775 7.00585C5.91075 7.00585 5.73276 6.92585 5.60377 6.79686L3.51685 4.70995ZM11.2865 3.85098V0.900104C11.2865 0.506121 11.6055 0.187134 11.9995 0.187134C12.3935 0.187134 12.7125 0.506121 12.7125 0.900104V3.85198C12.7125 4.24597 12.3935 4.56495 11.9995 4.56495C11.6055 4.56495 11.2865 4.24496 11.2865 3.85098Z"/>
    <path fill-rule="evenodd" clip-rule="evenodd" d="M11.8289 21.3128C11.6864 21.3128 11.5497 21.2562 11.449 21.1555L7.15815 16.8646H0.537316C0.240565 16.8646 1.36358e-06 16.6241 1.38952e-06 16.3273C1.41547e-06 16.0306 0.240565 15.79 0.537316 15.79L7.38071 15.79C7.52321 15.79 7.65988 15.8466 7.76065 15.9474L11.8289 20.0156L15.8972 15.9474C15.9979 15.8466 16.1346 15.79 16.2771 15.79H23.4627C23.7594 15.79 24 16.0306 24 16.3273C24 16.6241 23.7594 16.8646 23.4627 16.8646H16.4997L12.2089 21.1555C12.1081 21.2562 11.9714 21.3128 11.8289 21.3128Z"/>
    <path fill-rule="evenodd" clip-rule="evenodd" d="M12 9.11212C9.26618 9.11212 7.04999 11.3283 7.04999 14.0621C7.04999 14.4349 6.74778 14.7371 6.37499 14.7371C6.00219 14.7371 5.69999 14.4349 5.69999 14.0621C5.69999 10.5827 8.52059 7.76212 12 7.76212C15.4794 7.76212 18.3 10.5827 18.3 14.0621C18.3 14.4349 17.9978 14.7371 17.625 14.7371C17.2522 14.7371 16.95 14.4349 16.95 14.0621C16.95 11.3283 14.7338 9.11212 12 9.11212Z"/>
</svg>
